Patient4_TMGait_0pt4_03_left_32_EMG.mot
version=1
nRows=16
nColumns=33
inDegrees=no
endheader
time	1LAddLong	2LGlutMax	3LGlutMed	4LIliopsoas	5LSemiMemb	6LBicFemLong	7LRecFem	8LVastMed	9LVastLat	10LGasMed	11LTibAnt	12lTibPost	13LPeroneusLong	14LSol	15LExtDigLong	16LFlexDigLong	17RAddLong	18RGlutMax	19RGlutMed	20RIliopsoas	21RSemiMemb	22RBicFemLong	23RRecFem	24RVastMed	25RVastLat	26RGasMed	27RTibAnt	28RTibPost	29RPeroneusLong	30RSol	31RExtDigLong	32RFlexDigLong
42.682	0.023956	0.084381	-0.087128	0.019989	-0.016785	0.030975	0.007324	0.011902	-0.083466	0.060425	-0.011444	-0.14389	0.057373	-0.40314	-0.066681	-0.15595	-0.08606	0.33066	-0.08606	0.12192	0.11139	0.018768	0.41092	0.000305	0.024719	-0.002594	-0.71457	-0.009766	0.11505	-0.007477	0.000916	-0.006409
42.683	-0.001526	0.057678	-0.097198	0.023956	-0.021057	0.020447	0.062408	-0.006104	-0.002899	0.076599	-0.013885	-0.082245	0.43762	-0.22079	0.001526	-0.078735	-0.084686	0.35553	-0.10147	0.24338	0.080261	0.027771	0.41214	0.011444	0.033417	-0.005798	-0.12619	-0.00061	0.098114	0.12177	0.001831	-0.002441
42.684	-0.00946	0.043335	-0.14282	0.010071	-0.03479	0.022583	0.030365	-0.016632	0.092926	0.1062	-0.005035	0.045166	0.31738	-0.099487	0.052185	-0.033112	-0.070496	0.36331	-0.13138	0.16876	0.032959	0.078125	0.39978	0.049438	0.028992	0.004578	0.32867	-0.002899	0.24612	0.25345	0.002594	-0.013123
42.685	-0.026093	0.057983	-0.15259	0.011749	-0.073242	0.050964	0.016174	-0.033569	0.028076	0.049591	-0.005798	-0.046082	0.298	-0.23148	0.009003	-0.008392	-0.042725	0.42419	-0.2301	0.054016	0.012054	0.089569	0.35019	0.093231	0.029907	0.017242	0.32944	-0.00351	0.42801	0.18829	-0.001526	-0.00946
42.686	-0.02533	0.092163	-0.046692	0.007324	-0.088196	0.099487	-0.087433	-0.008698	-0.051117	0.002441	-0.016937	-0.013885	0.13168	-0.24506	-0.005798	-0.002594	-0.014954	0.41458	-0.21225	-0.031128	0.013123	0.10056	0.37445	0.12054	0.035858	0.013733	0.032501	-0.005951	0.45929	0.15137	-0.002899	-0.012817
42.687	-0.025787	0.11963	0.081024	-0.027924	-0.075226	0.13367	-0.18616	0.006561	-0.075378	0.00885	0.005341	-0.094299	-0.37079	-0.017853	-0.004425	0.000153	0.00061	0.42191	-0.1648	-0.048523	0.028229	0.067444	0.3566	0.12772	0.037994	0.005951	-0.45364	-0.001678	0.28854	0.14511	-0.001831	-0.01709
42.688	0.00412	0.078583	0.00885	0.010223	-0.044098	0.10178	-0.18906	0.007782	-0.032501	0.024719	0.003662	-0.045776	-0.26962	-0.006409	-0.028839	0.012207	0.010223	0.4599	0.000153	-0.007782	0.007935	0.030823	0.36301	0.14526	0.033264	-0.002289	-0.53284	-0.004578	0.17532	0.057678	-0.000458	-0.019531
42.689	0.045471	0.084534	-0.058746	0.004883	0.006561	0.097504	-0.25497	0.015106	0.006866	0.013428	0.000305	-0.009155	-0.098267	-0.008392	-0.037231	-0.005035	-0.005798	0.43198	-0.040131	0.042572	-0.001984	-0.005188	0.33447	0.088348	0.011292	-0.005341	-0.50079	-0.005951	0.10025	-0.05249	-0.001373	-0.019531
42.69	0.057373	0.11887	-0.11002	0.009003	-0.014343	0.077362	-0.33966	0.010681	-0.012665	0.002747	-0.011139	0.007935	0.3894	-0.056152	-0.040741	0.007629	0.002594	0.42801	-0.17532	0.028687	0.04776	-0.043945	0.35446	0.059052	0.021973	-0.006104	-0.27863	-0.002747	0.030823	-0.062866	-0.006409	-0.01358
42.691	0.045166	0.076447	-0.056458	0.002594	0.028381	-0.072021	-0.27847	0.008087	-0.003662	-0.018158	-0.006866	0.002594	0.17059	-0.068054	-0.00946	0.01236	0.017395	0.41489	-0.24857	-0.003357	0.064545	-0.061493	0.34424	0.027618	0.018463	0.001831	-0.073547	-0.007935	0.057526	-0.059509	0.001831	-0.012207
42.692	0.028687	0.032196	-0.028687	0.018311	0.091095	-0.36453	-0.22583	0.000458	-0.015869	-0.012665	0.000458	0.001678	0.045471	-0.16617	-0.003357	-0.004883	0.033417	0.4071	-0.21683	0.006866	0.064697	-0.086975	0.32547	0.023346	0.005341	0.003357	0.10223	-0.00824	0.027313	-0.061951	-0.001831	-0.017242
42.693	0.012665	0.049133	0.045471	0.019531	0.031891	-0.14358	-0.30548	0.00824	-0.044861	0.046082	0.01236	0.002136	-0.000458	-0.15472	-0.004578	0.001831	0.063629	0.448	-0.17242	0.034027	0.055237	-0.092468	0.34927	-0.057526	0.00351	-0.004425	0.12116	-0.002747	-0.010986	-0.058441	-0.001221	-0.019073
42.694	-0.006866	0.061188	0.052643	0.00885	-0.054932	0.031281	-0.32272	0.009613	-0.020142	0.041656	0.014954	0.001831	0.031433	-0.033264	0.015411	0.008545	0.040894	0.42572	-0.23544	0.032501	0.044403	-0.081024	0.35873	0.014801	0.000458	0.000458	0.06485	-0.008545	0.008087	-0.058594	-0.000153	-0.012207
42.695	-0.003357	0.084534	0.012207	0.003204	-0.11139	0.037689	-0.30319	0.015869	-0.010529	0.005493	0.017395	-0.001068	0.15747	0.12207	0.052643	0.00885	-0.000916	0.41565	-0.36331	0.023499	0.018616	-0.057373	0.37857	-0.028839	-0.030823	-0.002136	0.091705	-0.004578	-0.021515	-0.089111	0.001984	-0.018158
42.696	-0.010529	0.095215	0.0383	0.025024	-0.15289	-0.002136	-0.25253	0.014954	-0.006561	-0.076904	0.005188	-0.002289	0.65063	0.21912	0.10849	0.020905	-0.066223	0.42923	-0.36072	0.029755	0.001221	-0.10346	0.38849	-0.060272	-0.028534	-0.003815	0.11475	-0.006561	-0.035095	-0.11505	-0.004883	-0.021973
42.697	-0.003052	0.11002	-0.054779	0.021973	0.006714	-0.01236	-0.28458	0.012207	-0.026703	-0.039215	0.005035	-0.013275	0.46585	0.093079	0.036926	0.023193	-0.10162	0.39337	-0.3685	0.034485	-0.031586	-0.12451	0.38055	-0.079041	-0.037537	-0.001831	0.075684	-0.003357	-0.010681	-0.08667	-0.001678	-0.010376
